HIERARCHY
ROOT Hips
{
	OFFSET -3.958830 18.904000 13.208200
	CHANNELS 6 Xposition Yposition Zposition Zrotation Yrotation Xrotation 
	JOINT LHipJoint
	{
		OFFSET 0.000000 0.000000 0.000000
		CHANNELS 3 Zrotation Yrotation Xrotation
		JOINT LeftUpLeg
		{
			OFFSET 1.800000 -1.400000 0.085000
			CHANNELS 3 Zrotation Yrotation Xrotation
			JOINT LeftLeg
			{
				OFFSET 2.215000 -6.000000 0.000000
				CHANNELS 3 Zrotation Yrotation Xrotation
				JOINT LeftFoot
				{
					OFFSET 2.500000 -6.900000 0.000000
					CHANNELS 3 Zrotation Yrotation Xrotation
					JOINT LeftToeBase
					{
						OFFSET 0.200000 -0.500000 1.950000
						CHANNELS 3 Zrotation Yrotation Xrotation
						End Site
						{
							OFFSET 0.000000 0.000000 0.000000
						}
					}
				}
			}
		}
	}
	JOINT RHipJoint
	{
		OFFSET 0.000000 0.000000 0.000000
		CHANNELS 3 Zrotation Yrotation Xrotation
		JOINT RightUpLeg
		{
			OFFSET -1.800000 -1.400000 0.085000
			CHANNELS 3 Zrotation Yrotation Xrotation
			JOINT RightLeg
			{
				OFFSET -2.215000 -6.000000 0.000000
				CHANNELS 3 Zrotation Yrotation Xrotation
				JOINT RightFoot
				{
					OFFSET -2.500000 -6.900000 0.000000
					CHANNELS 3 Zrotation Yrotation Xrotation
					JOINT RightToeBase
					{
						OFFSET -0.200000 -0.500000 1.950000
						CHANNELS 3 Zrotation Yrotation Xrotation
						End Site
						{
							OFFSET 0.000000 0.000000 0.000000
						}
					}
				}
			}
		}
	}
	JOINT LowerBack
	{
		OFFSET 0.000000 0.000000 0.000000
		CHANNELS 3 Zrotation Yrotation Xrotation
		JOINT Spine
		{
			OFFSET -0.087000 1.940000 -0.288900
			CHANNELS 3 Zrotation Yrotation Xrotation
			JOINT Spine1
			{
				OFFSET 0.000000 1.950000 0.060000
				CHANNELS 3 Zrotation Yrotation Xrotation
				JOINT Neck
				{
					OFFSET 0.000000 0.000000 0.000000
					CHANNELS 3 Zrotation Yrotation Xrotation
					JOINT Neck1
					{
						OFFSET 0.000000 1.600000 0.340000
						CHANNELS 3 Zrotation Yrotation Xrotation
						JOINT Head
						{
							OFFSET 0.000000 1.667000 -0.240000
							CHANNELS 3 Zrotation Yrotation Xrotation
							End Site
							{
								OFFSET 0.000000 0.000000 0.000000
							}
						}
					}
				}
				JOINT LeftShoulder
				{
					OFFSET 0.000000 0.000000 0.000000
					CHANNELS 3 Zrotation Yrotation Xrotation
					JOINT LeftArm
					{
						OFFSET 2.700000 1.550000 -0.730000
						CHANNELS 3 Zrotation Yrotation Xrotation
						JOINT LeftForeArm
						{
							OFFSET 5.450000 0.000000 0.000000
							CHANNELS 3 Zrotation Yrotation Xrotation
							JOINT LeftHand
							{
								OFFSET 3.450000 0.000000 0.000000
								CHANNELS 3 Zrotation Yrotation Xrotation
								JOINT LeftHandIndex1
								{
									OFFSET 0.750000 0.000000 0.000000
									CHANNELS 3 Zrotation Yrotation Xrotation
									End Site
									{
										OFFSET 0.000000 0.000000 0.000000
									}
								}
							}
						}
					}
				}
				JOINT RightShoulder
				{
					OFFSET 0.000000 0.000000 0.000000
					CHANNELS 3 Zrotation Yrotation Xrotation
					JOINT RightArm
					{
						OFFSET -2.700000 1.550000 -0.730000
						CHANNELS 3 Zrotation Yrotation Xrotation
						JOINT RightForeArm
						{
							OFFSET -5.450000 0.000000 0.000000
							CHANNELS 3 Zrotation Yrotation Xrotation
							JOINT RightHand
							{
								OFFSET -3.450000 0.000000 0.000000
								CHANNELS 3 Zrotation Yrotation Xrotation
								JOINT RightHandIndex1
								{
									OFFSET -0.750000 0.000000 0.000000
									CHANNELS 3 Zrotation Yrotation Xrotation
									End Site
									{
										OFFSET 0.000000 0.000000 0.000000
									}
								}
							}
						}
					}
				}
			}
		}
	}
}
MOTION
Frames: 4
Frame Time: 0.016667
-0.243450 17.065670 -0.678750 -1.149870 6.858025 7.367827 -14.547522 12.437281 2.606118 15.961491 -1.532503 -20.574812 -4.481310 5.464246 14.719300 -0.220045 4.806763 3.375446 -0.199420 -0.727830 -0.446770 18.749910 -11.894443 2.862262 -14.722847 2.447375 -23.074584 11.403578 -9.994989 25.126685 0.002128 -5.935698 2.625880 -0.393960 1.556750 1.084830 -5.318736 1.699578 -7.304353 24.164023 -0.339449 6.866046 -6.907312 0.050572 20.415512 4.866621 5.674640 -14.577516 10.950573 -2.842929 41.954764 -8.805660 3.627210 25.587370 7.464516 -12.277475 8.540003 -31.882899 -26.106226 21.239935 174.703401 -49.504420 -174.218927 -4.463253 3.863318 -0.115090 1.272900 -0.492610 0.693990 -16.445218 8.283319 9.680988 38.645573 33.683143 20.032296 -151.620315 50.246087 -142.286996 1.639177 -2.557895 -0.172140 -0.094440 0.120380 0.376690 
-0.205050 17.073810 -0.620940 -1.099522 8.395965 8.114186 -14.584113 12.459881 2.659958 15.354383 -1.653029 -19.785525 -4.778271 4.983627 11.809861 -0.286255 4.670947 3.470990 -0.270840 -0.824160 -0.500330 18.708464 -11.863105 2.791217 -14.304409 2.328487 -22.416253 10.950254 -9.613235 24.075222 0.066814 -5.799853 2.678773 -0.412350 1.632160 1.089520 -5.231368 1.550573 -7.244358 23.889730 0.024273 5.775917 -7.123524 0.288158 19.162228 4.543159 5.241971 -14.359848 9.666834 -2.079909 37.368257 -8.723700 3.503220 25.397290 5.057488 -9.906179 8.330802 -28.667772 -20.818669 19.357865 175.482977 -47.021691 -173.816368 -4.604227 3.854784 -0.119470 1.323680 -0.556610 0.670660 -13.721473 6.300134 9.790257 36.433310 28.232382 18.600348 -157.465533 46.637416 -147.482404 1.634838 -2.594738 -0.228780 -0.074220 0.184720 0.364460 
-0.162360 17.075860 -0.559330 -1.220873 9.637396 9.448565 -14.633625 12.425604 2.749312 14.939729 -1.836499 -19.684864 -5.052483 4.562051 9.133396 -0.385543 4.649224 3.533258 -0.361550 -0.942860 -0.584670 18.676604 -11.756297 2.735863 -13.716526 2.454922 -22.415888 10.496886 -9.187203 23.144052 0.170103 -5.687617 2.722999 -0.408030 1.753840 1.090290 -5.127229 1.374590 -7.175905 23.708338 0.422739 4.505384 -7.271747 0.524588 17.021438 4.265886 4.376481 -13.476578 7.818182 -1.041652 32.207259 -8.608360 3.467010 25.279950 2.180964 -6.440980 7.445315 -25.757499 -15.640726 17.913998 176.680857 -45.281836 -174.285446 -4.790090 3.873102 -0.152170 1.418090 -0.676990 0.642810 -10.528329 3.439776 9.206003 33.913220 22.625625 16.942331 -162.285685 44.354366 -152.374243 1.602997 -2.671877 -0.318890 -0.047600 0.273480 0.346770 
-0.123290 17.073050 -0.495850 -1.125992 10.733656 11.330347 -14.702690 12.339058 2.835848 14.359891 -2.127569 -20.228647 -5.216601 4.155412 6.873458 -0.530480 4.704885 3.576412 -0.435500 -1.052010 -0.675020 18.648893 -11.590706 2.687450 -13.396962 2.677980 -22.870130 10.243000 -8.758807 22.024724 0.284948 -5.610237 2.737114 -0.366460 1.920470 1.114420 -4.988172 1.183094 -7.055908 22.679200 1.068545 2.747850 -6.658051 0.740801 14.391048 3.894257 3.355498 -11.977469 6.014126 0.037572 27.082647 -8.297360 3.156860 24.749190 -0.850016 -2.357085 6.206159 -23.136020 -10.519678 16.481286 176.488008 -44.564627 -172.119525 -5.027114 3.909476 -0.202050 1.550480 -0.829990 0.625750 -6.818222 -0.119851 7.798919 30.130387 16.921261 14.980390 -166.532719 43.373720 -157.592558 1.532440 -2.783916 -0.425590 -0.010480 0.375370 0.329980 
